<?xml version="1.0" encoding="utf-8"?>
<!-- Generator: Adobe Illustrator 27.1.1, SVG Export Plug-In . SVG Version: 6.00 Build 0)  -->
<svg version="1.1" id="Layer_1" xmlns="http://www.w3.org/2000/svg" xmlns:xlink="http://www.w3.org/1999/xlink" x="0px" y="0px"
	 viewBox="0 0 199 32" enable-background="new 0 0 199 32" xml:space="preserve">
<g>
	<g>
		
			<radialGradient id="SVGID_1_" cx="2005.4388" cy="1082.1913" r="11.2357" gradientTransform="matrix(2.6099 0 0 2.6099 -5207.7817 -2823.24)" gradientUnits="userSpaceOnUse">
			<stop  offset="0" style="stop-color:#FFFFFF"/>
			<stop  offset="0.1158" style="stop-color:#F6FBFD"/>
			<stop  offset="0.3046" style="stop-color:#DEF1F8"/>
			<stop  offset="0.5432" style="stop-color:#B6DFF0"/>
			<stop  offset="0.8192" style="stop-color:#7FC8E5"/>
			<stop  offset="1" style="stop-color:#58B7DD"/>
		</radialGradient>
		<path fill="url(#SVGID_1_)" d="M27.405,17.138c0,3.387-1.237,6.486-3.279,8.88c0,0-3.498,4.385-10.424,5.981
			C6.778,30.404,3.28,26.019,3.28,26.019C1.238,23.624,0,20.525,0,17.138v-2.705h9.105v2.705c0,2.537,2.063,4.6,4.598,4.6
			c2.535,0,4.599-2.063,4.599-4.6V9.104H0V0h27.405V17.138z"/>
		<path fill="#FFFFFF" d="M26.131,26.62c0.763,0,1.374,0.623,1.374,1.397c0,0.774-0.611,1.4-1.374,1.4
			c-0.751,0-1.361-0.626-1.361-1.4C24.77,27.243,25.38,26.62,26.131,26.62z M26.13,29.198c0.633,0,1.117-0.521,1.117-1.181
			c0-0.659-0.484-1.178-1.117-1.178c-0.62,0-1.101,0.519-1.101,1.178C25.029,28.678,25.51,29.198,26.13,29.198z M25.69,27.365h0.505
			c0.303,0,0.452,0.122,0.452,0.371c0,0.212-0.134,0.365-0.34,0.365l0.374,0.584h-0.227l-0.368-0.584h-0.181v0.584H25.69V27.365z
			 M25.905,27.934h0.256c0.165,0,0.271-0.034,0.271-0.206c0-0.15-0.134-0.193-0.271-0.193h-0.256V27.934z"/>
	</g>
	<g>
		<g>
			<path fill="#FFFFFF" d="M36.55,16.542c0.422,0.155,0.867,0.268,1.487,0.268c2.022,0,2.022-1.623,2.022-2.732V2.83h3.107v12.736
				c0,1.643-1.065,3.952-4.241,3.952c-0.843,0-1.509-0.067-2.376-0.29V16.542z"/>
			<path fill="#FFFFFF" d="M53.162,12.411c-0.089-1.443-0.756-2.686-2.42-2.686c-1.666,0-2.51,1.154-2.642,2.686H53.162z
				 M55.16,18.607c-1.087,0.6-2.332,0.911-3.929,0.911c-3.776,0-5.974-2.177-5.974-5.929c0-3.308,1.755-6.038,5.307-6.038
				c4.24,0,5.439,2.907,5.439,6.905h-7.904c0.133,1.842,1.421,2.885,3.264,2.885c1.443,0,2.687-0.532,3.796-1.154V18.607z"/>
			<path fill="#FFFFFF" d="M58.98,9.991h-2.2V7.815h2.2V6.216c0-2.288,1.286-3.886,3.641-3.886c0.755,0,1.598,0.111,2.176,0.243
				l-0.244,2.465c-0.268-0.155-0.643-0.4-1.288-0.4c-0.999,0-1.311,0.867-1.311,1.754v1.422h2.599v2.176h-2.599v9.259H58.98V9.991z"
				/>
			<path fill="#FFFFFF" d="M67.467,9.992h-2.198V7.816h2.198V6.217c0-2.288,1.289-3.887,3.642-3.887
				c0.755,0,1.599,0.112,2.175,0.245l-0.244,2.465c-0.265-0.156-0.644-0.401-1.287-0.401c-1,0-1.31,0.866-1.31,1.755v1.422h2.597
				v2.176h-2.597v9.258h-2.976V9.992z"/>
			<path fill="#FFFFFF" d="M81.627,12.411c-0.088-1.443-0.754-2.686-2.422-2.686c-1.665,0-2.509,1.154-2.642,2.686H81.627z
				 M83.625,18.607c-1.089,0.6-2.331,0.911-3.932,0.911c-3.774,0-5.972-2.177-5.972-5.929c0-3.308,1.752-6.038,5.306-6.038
				c4.244,0,5.443,2.907,5.443,6.905h-7.907c0.134,1.842,1.422,2.885,3.265,2.885c1.444,0,2.687-0.532,3.798-1.154V18.607z"/>
			<path fill="#FFFFFF" d="M85.933,7.815h2.645v2.597h0.044c0.131-1.065,1.353-2.862,3.131-2.862c0.288,0,0.6,0,0.911,0.088v2.997
				c-0.267-0.155-0.8-0.245-1.333-0.245c-2.421,0-2.421,3.019-2.421,4.662v4.197h-2.977V7.815z"/>
			<path fill="#FFFFFF" d="M101.31,10.214c-0.911-0.311-1.577-0.488-2.663-0.488c-0.8,0-1.755,0.288-1.755,1.266
				c0,1.819,5.174,0.665,5.174,4.795c0,2.664-2.377,3.731-4.798,3.731c-1.132,0-2.287-0.2-3.373-0.489l0.178-2.442
				c0.931,0.466,1.909,0.755,2.93,0.755c0.754,0,1.953-0.288,1.953-1.398c0-2.243-5.174-0.712-5.174-4.841
				c0-2.466,2.156-3.552,4.487-3.552c1.397,0,2.308,0.222,3.241,0.421L101.31,10.214z"/>
			<path fill="#FFFFFF" d="M109.272,17.208c2.287,0,2.887-2.042,2.887-3.952c0-1.755-0.933-3.397-2.887-3.397
				c-1.932,0-2.867,1.688-2.867,3.397C106.405,15.143,107.005,17.208,109.272,17.208 M109.272,7.551c3.395,0,5.994,2.285,5.994,6.06
				c0,3.287-2.198,5.907-5.994,5.907c-3.775,0-5.975-2.62-5.975-5.907C103.297,9.835,105.895,7.551,109.272,7.551"/>
			<path fill="#FFFFFF" d="M117.137,7.815h2.82v1.554h0.046c0.931-1.309,2.198-1.819,3.751-1.819c2.712,0,3.888,1.908,3.888,4.485
				v7.215h-2.976v-6.105c0-1.4-0.021-3.287-1.932-3.287c-2.153,0-2.619,2.332-2.619,3.798v5.594h-2.977V7.815z"/>
		</g>
		<g>
			<g>
				<path fill="#FFFFFF" d="M187.252,19.239h2.971v-5.584c0-1.463,0.465-3.79,2.614-3.79c1.908,0,1.929,1.883,1.929,3.279v6.094
					h2.969v-7.201c0-2.572-1.173-4.478-3.877-4.478c-1.551,0-2.836,0.71-3.59,1.817h-0.044V2.618h-2.971V19.239z M179.888,15.806
					c0,2.259,1.285,3.7,3.611,3.7c0.888,0,1.574-0.089,2.193-0.266l-0.089-2.35c-0.308,0.201-0.82,0.311-1.35,0.311
					c-1.13,0-1.397-0.906-1.397-1.883V9.999h2.637V7.826h-2.637V4.59l-2.969,0.954v2.282h-2.196v2.172h2.196V15.806z
					 M173.292,19.239h2.971V2.618h-2.971V19.239z M163.4,15.939c0-1.752,1.971-1.974,3.303-1.974h1.285
					c0,0.885-0.133,1.705-0.621,2.35c-0.465,0.619-1.173,1.018-2.083,1.018C164.22,17.333,163.4,16.913,163.4,15.939
					 M161.894,10.972c0.995-0.753,2.261-1.24,3.525-1.24c1.749,0,2.569,0.621,2.569,2.46h-1.64c-1.24,0-2.705,0.112-3.835,0.666
					c-1.13,0.554-1.95,1.552-1.95,3.256c0,2.172,1.974,3.391,3.989,3.391c1.352,0,2.838-0.71,3.524-1.971h0.044
					c0.023,0.355,0.023,1.107,0.133,1.705h2.614c-0.065-0.885-0.11-1.684-0.133-2.548c-0.021-0.841-0.042-1.707-0.042-2.859v-1.462
					c0-3.368-1.441-4.809-4.921-4.809c-1.264,0-2.814,0.332-3.966,0.864L161.894,10.972z M158.512,16.182
					c-1.107,0.621-2.347,1.152-3.789,1.152c-1.841,0-3.125-1.039-3.258-2.88h7.89c0-3.99-1.196-6.893-5.428-6.893
					c-3.548,0-5.297,2.726-5.297,6.028c0,3.745,2.193,5.917,5.961,5.917c1.595,0,2.838-0.311,3.922-0.909V16.182z M151.465,12.414
					c0.133-1.529,0.976-2.681,2.637-2.681c1.663,0,2.326,1.24,2.415,2.681H151.465z M134.349,19.239h3.104v-7.37h6.206v7.37h3.102
					V2.83h-3.102v6.602h-6.206V2.83h-3.104V19.239z"/>
			</g>
		</g>
	</g>
	<g>
		<path fill="#FFFFFF" d="M37.123,24.78h0.591v1.85h2.184v-1.85h0.591v4.213h-0.591v-1.85h-2.184v1.85h-0.591V24.78z"/>
		<path fill="#FFFFFF" d="M44.406,24.709c1.217,0,2.159,0.937,2.159,2.148c0,1.241-0.942,2.208-2.159,2.208
			c-1.217,0-2.166-0.966-2.166-2.208C42.24,25.645,43.188,24.709,44.406,24.709z M44.406,28.522c0.859,0,1.551-0.716,1.551-1.665
			c0-0.919-0.692-1.611-1.551-1.611c-0.859,0-1.558,0.692-1.558,1.611C42.848,27.805,43.546,28.522,44.406,28.522z"/>
		<path fill="#FFFFFF" d="M48.525,24.78h0.62l0.967,2.279c0.095,0.233,0.208,0.567,0.208,0.567h0.012c0,0,0.113-0.334,0.209-0.567
			l0.966-2.279h0.621l0.34,4.213h-0.585l-0.209-2.655c-0.017-0.257-0.006-0.62-0.006-0.62h-0.012c0,0-0.125,0.388-0.227,0.62
			l-0.841,1.897h-0.525l-0.835-1.897c-0.095-0.227-0.227-0.633-0.227-0.633h-0.012c0,0,0.006,0.376-0.012,0.633l-0.203,2.655h-0.591
			L48.525,24.78z"/>
		<path fill="#FFFFFF" d="M54.376,24.78h2.446v0.514h-1.855v1.319h1.509v0.513h-1.509v1.354h1.957v0.513h-2.548V24.78z"/>
		<path fill="#FFFFFF" d="M62.989,24.709c1.217,0,2.159,0.937,2.159,2.148c0,1.241-0.942,2.208-2.159,2.208
			c-1.217,0-2.166-0.966-2.166-2.208C60.824,25.645,61.772,24.709,62.989,24.709z M62.989,28.522c0.859,0,1.551-0.716,1.551-1.665
			c0-0.919-0.692-1.611-1.551-1.611c-0.859,0-1.558,0.692-1.558,1.611C61.432,27.805,62.13,28.522,62.989,28.522z"/>
		<path fill="#FFFFFF" d="M66.9,24.78h2.321v0.514h-1.73v1.384h1.474v0.513h-1.474v1.802H66.9V24.78z"/>
		<path fill="#FFFFFF" d="M73.336,28.062c0,0,0.447,0.453,1.074,0.453c0.394,0,0.728-0.221,0.728-0.62
			c0-0.913-2.041-0.716-2.041-2.011c0-0.656,0.567-1.175,1.36-1.175c0.782,0,1.194,0.424,1.194,0.424l-0.269,0.489
			c0,0-0.388-0.364-0.925-0.364c-0.447,0-0.764,0.28-0.764,0.615c0,0.871,2.041,0.638,2.041,2.005c0,0.651-0.501,1.187-1.337,1.187
			c-0.895,0-1.396-0.555-1.396-0.555L73.336,28.062z"/>
		<path fill="#FFFFFF" d="M77.473,24.78h0.591v4.213h-0.591V24.78z"/>
		<path fill="#FFFFFF" d="M80.1,24.78h1.396c1.289,0,2.136,0.77,2.136,2.1c0,1.337-0.847,2.112-2.136,2.112H80.1V24.78z
			 M81.454,28.48c0.949,0,1.569-0.561,1.569-1.599c0-1.032-0.627-1.587-1.569-1.587H80.69v3.186H81.454z"/>
		<path fill="#FFFFFF" d="M85.406,24.78h0.585l1.873,2.739c0.155,0.226,0.352,0.608,0.352,0.608h0.012c0,0-0.042-0.376-0.042-0.608
			V24.78h0.591v4.213h-0.579l-1.88-2.733c-0.155-0.233-0.352-0.615-0.352-0.615h-0.012c0,0,0.042,0.376,0.042,0.615v2.733h-0.591
			V24.78z"/>
		<path fill="#FFFFFF" d="M90.815,24.78h2.446v0.514h-1.855v1.319h1.509v0.513h-1.509v1.354h1.957v0.513h-2.548V24.78z"/>
		<path fill="#FFFFFF" d="M96.014,27.209L94.6,24.78h0.668l0.782,1.385c0.131,0.233,0.257,0.531,0.257,0.531h0.012
			c0,0,0.125-0.292,0.257-0.531l0.77-1.385h0.668l-1.408,2.429v1.784h-0.591V27.209z"/>
		<path fill="#FFFFFF" d="M101.948,24.78h0.591v1.772h0.626l1.062-1.772h0.651l-1.223,1.999v0.012l1.301,2.202h-0.668l-1.122-1.933
			h-0.626v1.933h-0.591V24.78z"/>
		<path fill="#FFFFFF" d="M106.557,24.78h0.591v4.213h-0.591V24.78z"/>
		<path fill="#FFFFFF" d="M109.393,24.78h0.62l0.967,2.279c0.095,0.233,0.209,0.567,0.209,0.567h0.012c0,0,0.113-0.334,0.209-0.567
			l0.966-2.279h0.621l0.34,4.213h-0.585l-0.209-2.655c-0.018-0.257-0.006-0.62-0.006-0.62h-0.012c0,0-0.125,0.388-0.226,0.62
			l-0.841,1.897h-0.525l-0.835-1.897c-0.095-0.227-0.227-0.633-0.227-0.633h-0.012c0,0,0.006,0.376-0.012,0.633l-0.203,2.655h-0.591
			L109.393,24.78z"/>
		<path fill="#FFFFFF" d="M115.452,24.78h0.62l0.967,2.279c0.095,0.233,0.209,0.567,0.209,0.567h0.012c0,0,0.114-0.334,0.209-0.567
			l0.967-2.279h0.621l0.34,4.213h-0.585l-0.209-2.655c-0.018-0.257-0.006-0.62-0.006-0.62h-0.013c0,0-0.124,0.388-0.226,0.62
			l-0.841,1.897h-0.525l-0.836-1.897c-0.095-0.227-0.226-0.633-0.226-0.633h-0.012c0,0,0.006,0.376-0.013,0.633l-0.202,2.655h-0.591
			L115.452,24.78z"/>
		<path fill="#FFFFFF" d="M121.303,24.78h2.446v0.514h-1.855v1.319h1.509v0.513h-1.509v1.354h1.957v0.513h-2.548V24.78z"/>
		<path fill="#FFFFFF" d="M125.613,24.78h0.591v3.7h1.885v0.513h-2.476V24.78z"/>
		<path fill="#FFFFFF" d="M132.293,24.78h0.62l0.967,2.279c0.095,0.233,0.209,0.567,0.209,0.567h0.012c0,0,0.114-0.334,0.209-0.567
			l0.967-2.279h0.621l0.34,4.213h-0.585l-0.209-2.655c-0.018-0.257-0.006-0.62-0.006-0.62h-0.013c0,0-0.124,0.388-0.226,0.62
			l-0.841,1.897h-0.525l-0.836-1.897c-0.095-0.227-0.226-0.633-0.226-0.633h-0.012c0,0,0.006,0.376-0.013,0.633l-0.202,2.655h-0.591
			L132.293,24.78z"/>
		<path fill="#FFFFFF" d="M138.143,24.78h2.447v0.514h-1.856v1.319h1.51v0.513h-1.51v1.354h1.957v0.513h-2.548V24.78z"/>
		<path fill="#FFFFFF" d="M142.453,24.78h1.396c1.289,0,2.136,0.77,2.136,2.1c0,1.337-0.846,2.112-2.136,2.112h-1.396V24.78z
			 M143.808,28.48c0.949,0,1.569-0.561,1.569-1.599c0-1.032-0.627-1.587-1.569-1.587h-0.764v3.186H143.808z"/>
		<path fill="#FFFFFF" d="M147.761,24.78h0.591v4.213h-0.591V24.78z"/>
		<path fill="#FFFFFF" d="M152.243,24.709c1.014,0,1.533,0.555,1.533,0.555l-0.292,0.442c0,0-0.489-0.46-1.217-0.46
			c-0.943,0-1.558,0.716-1.558,1.611c0,0.901,0.627,1.665,1.563,1.665c0.793,0,1.3-0.549,1.3-0.549l0.317,0.424
			c0,0-0.579,0.668-1.635,0.668c-1.265,0-2.154-0.966-2.154-2.201C150.1,25.64,151.02,24.709,152.243,24.709z"/>
		<path fill="#FFFFFF" d="M157.675,27.782h-1.587l-0.418,1.211h-0.609l1.516-4.213h0.621l1.515,4.213h-0.614L157.675,27.782z
			 M156.881,25.359c0,0-0.095,0.382-0.167,0.597l-0.471,1.336h1.277l-0.465-1.336c-0.071-0.215-0.16-0.597-0.16-0.597H156.881z"/>
		<path fill="#FFFFFF" d="M160.225,24.78h0.591v3.7h1.886v0.513h-2.477V24.78z"/>
		<path fill="#FFFFFF" d="M168.552,24.709c1.014,0,1.533,0.555,1.533,0.555l-0.292,0.442c0,0-0.489-0.46-1.216-0.46
			c-0.943,0-1.558,0.716-1.558,1.611c0,0.901,0.627,1.665,1.563,1.665c0.793,0,1.3-0.549,1.3-0.549l0.317,0.424
			c0,0-0.579,0.668-1.635,0.668c-1.265,0-2.154-0.966-2.154-2.201C166.409,25.64,167.329,24.709,168.552,24.709z"/>
		<path fill="#FFFFFF" d="M173.746,24.709c1.217,0,2.159,0.937,2.159,2.148c0,1.241-0.942,2.208-2.159,2.208
			c-1.217,0-2.167-0.966-2.167-2.208C171.58,25.645,172.529,24.709,173.746,24.709z M173.746,28.522
			c0.859,0,1.551-0.716,1.551-1.665c0-0.919-0.692-1.611-1.551-1.611c-0.86,0-1.558,0.692-1.558,1.611
			C172.189,27.805,172.886,28.522,173.746,28.522z"/>
		<path fill="#FFFFFF" d="M177.657,24.78h0.591v3.7h1.885v0.513h-2.476V24.78z"/>
		<path fill="#FFFFFF" d="M181.704,24.78h0.591v3.7h1.886v0.513h-2.477V24.78z"/>
		<path fill="#FFFFFF" d="M185.752,24.78h2.446v0.514h-1.855v1.319h1.509v0.513h-1.509v1.354h1.957v0.513h-2.548V24.78z"/>
		<path fill="#FFFFFF" d="M191.9,24.709c1.009,0,1.533,0.507,1.533,0.507l-0.298,0.442c0,0-0.471-0.412-1.187-0.412
			c-0.99,0-1.587,0.722-1.587,1.623c0,0.978,0.668,1.653,1.552,1.653c0.728,0,1.193-0.525,1.193-0.525v-0.609h-0.687v-0.513h1.223
			v2.118h-0.519V28.73c0-0.09,0.006-0.179,0.006-0.179h-0.012c0,0-0.46,0.513-1.295,0.513c-1.133,0-2.07-0.895-2.07-2.184
			C189.752,25.663,190.67,24.709,191.9,24.709z"/>
		<path fill="#FFFFFF" d="M195.459,24.78h2.447v0.514h-1.856v1.319h1.51v0.513h-1.51v1.354h1.957v0.513h-2.548V24.78z"/>
	</g>
</g>
</svg>
